<?xml version="1.0" encoding="iso-8859-1"?><!-- Generator: Adobe Illustrator 22.1.0, SVG Export Plug-In . SVG Version: 6.00 Build 0)  --><svg xmlns="http://www.w3.org/2000/svg" xmlns:xlink="http://www.w3.org/1999/xlink" viewBox="0 0 24 24" width="50px" height="50px"><g id="Filled"><g><g><path d="M10.324,9.736c-0.261-0.176-0.446-0.449-0.556-0.82c-0.11-0.371-0.165-0.864-0.165-1.479V6.598c0-0.622,0.063-1.121,0.188-1.498c0.126-0.377,0.322-0.652,0.589-0.824c0.267-0.173,0.617-0.259,1.051-0.259c0.427,0,0.769,0.088,1.027,0.264c0.258,0.176,0.446,0.451,0.565,0.824c0.119,0.374,0.179,0.872,0.179,1.493v0.839c0,0.616-0.058,1.11-0.174,1.484c-0.116,0.374-0.305,0.647-0.565,0.82C12.203,9.914,11.849,10,11.403,10C10.945,10,10.585,9.912,10.324,9.736z M11.785,8.832c0.072-0.188,0.108-0.496,0.108-0.923v-1.8c0-0.415-0.036-0.718-0.108-0.909c-0.072-0.192-0.2-0.287-0.382-0.287c-0.176,0-0.3,0.096-0.372,0.287c-0.072,0.192-0.108,0.495-0.108,0.909v1.8c0,0.427,0.034,0.735,0.104,0.923c0.069,0.188,0.195,0.283,0.377,0.283C11.585,9.114,11.713,9.02,11.785,8.832z"/><path d="M7.158,7.343L5.679,2H6.97l0.518,2.422C7.62,5.018,7.717,5.527,7.78,5.948h0.038C7.862,5.647,7.959,5.141,8.11,4.431L8.647,2h1.291L8.44,7.343v2.563H7.158V7.343z"/><path d="M17.401,4.13v5.776h-1.018l-0.113-0.707h-0.028C15.966,9.733,15.551,10,14.999,10c-0.383,0-0.666-0.126-0.848-0.377c-0.182-0.251-0.273-0.644-0.273-1.178V4.13h1.3v4.24c0,0.258,0.028,0.441,0.085,0.551c0.057,0.11,0.151,0.165,0.283,0.165c0.113,0,0.221-0.034,0.325-0.104c0.104-0.069,0.181-0.157,0.231-0.264V4.13H17.401z"/></g></g><g><path d="M17.333,15.792c-0.056-0.066-0.142-0.099-0.259-0.099c-0.117,0-0.203,0.035-0.259,0.103c-0.056,0.069-0.093,0.182-0.111,0.338c-0.019,0.156-0.028,0.394-0.028,0.712v0.35h0.803v-0.35c0-0.313-0.011-0.55-0.032-0.712C17.427,15.972,17.389,15.858,17.333,15.792z"/><path d="M13.851,15.86c-0.061-0.087-0.147-0.131-0.259-0.131c-0.106,0-0.204,0.042-0.294,0.127c-0.09,0.085-0.154,0.194-0.191,0.326v2.768c0.048,0.085,0.11,0.148,0.187,0.191c0.077,0.042,0.16,0.064,0.251,0.064c0.117,0,0.209-0.042,0.278-0.127c0.069-0.085,0.118-0.228,0.147-0.43c0.029-0.201,0.044-0.48,0.044-0.835v-0.628c0-0.382-0.012-0.676-0.036-0.883C13.954,16.095,13.911,15.947,13.851,15.86z"/><path d="M19,11H5c-1.1,0-2,0.9-2,2v7c0,1.1,0.9,2,2,2h14c1.1,0,2-0.9,2-2v-7C21,11.9,20.1,11,19,11z M7.649,19.92H6.576V14.13h-1.09v-0.883h3.253v0.883h-1.09V19.92z M11.387,19.92h-0.859l-0.095-0.597h-0.024C10.175,19.775,9.825,20,9.358,20c-0.324,0-0.562-0.106-0.716-0.318c-0.154-0.212-0.231-0.544-0.231-0.994v-3.643H9.51v3.58c0,0.217,0.024,0.373,0.072,0.465c0.048,0.093,0.127,0.139,0.239,0.139c0.095,0,0.187-0.029,0.274-0.088c0.088-0.058,0.152-0.133,0.195-0.223v-3.874h1.098V19.92z M15.119,17.876c0,0.727-0.088,1.261-0.263,1.603s-0.448,0.513-0.819,0.513c-0.207,0-0.395-0.048-0.565-0.143c-0.17-0.095-0.297-0.225-0.382-0.39h-0.024l-0.111,0.461h-0.907V13h1.058l0,2.569h0.008c0.095-0.186,0.231-0.335,0.406-0.449c0.175-0.114,0.363-0.171,0.565-0.171c0.26,0,0.464,0.069,0.612,0.207c0.148,0.138,0.256,0.361,0.322,0.668c0.066,0.308,0.099,0.735,0.099,1.281V17.876z M18.514,17.848h-1.837v0.247c0,0.313,0.009,0.548,0.028,0.704c0.019,0.156,0.057,0.271,0.115,0.342c0.058,0.072,0.148,0.107,0.27,0.107c0.164,0,0.277-0.064,0.338-0.191c0.061-0.127,0.094-0.339,0.099-0.636l0.947,0.056c0.005,0.042,0.008,0.101,0.008,0.175c0,0.451-0.123,0.788-0.37,1.01c-0.247,0.223-0.595,0.334-1.046,0.334c-0.541,0-0.92-0.17-1.138-0.509c-0.218-0.339-0.326-0.864-0.326-1.575V17.06c0-0.732,0.113-1.266,0.338-1.603c0.225-0.337,0.611-0.505,1.157-0.505c0.376,0,0.665,0.069,0.867,0.207c0.201,0.138,0.343,0.353,0.426,0.644c0.082,0.292,0.123,0.695,0.123,1.209V17.848z"/></g></g><g id="Outlined" style="display:none;"><g style="display:inline;"><g><path d="M10.324,9.736c-0.261-0.176-0.446-0.449-0.556-0.82c-0.11-0.371-0.165-0.864-0.165-1.479V6.598c0-0.622,0.063-1.121,0.188-1.498c0.126-0.377,0.322-0.652,0.589-0.824c0.267-0.173,0.617-0.259,1.051-0.259c0.427,0,0.769,0.088,1.027,0.264c0.258,0.176,0.446,0.451,0.565,0.824c0.119,0.374,0.179,0.872,0.179,1.493v0.839c0,0.616-0.058,1.11-0.174,1.484c-0.116,0.374-0.305,0.647-0.565,0.82C12.203,9.914,11.849,10,11.403,10C10.945,10,10.585,9.912,10.324,9.736z M11.785,8.832c0.072-0.188,0.108-0.496,0.108-0.923v-1.8c0-0.415-0.036-0.718-0.108-0.909c-0.072-0.192-0.2-0.287-0.382-0.287c-0.176,0-0.3,0.096-0.372,0.287c-0.072,0.192-0.108,0.495-0.108,0.909v1.8c0,0.427,0.034,0.735,0.104,0.923c0.069,0.188,0.195,0.283,0.377,0.283C11.585,9.114,11.713,9.02,11.785,8.832z"/><path d="M7.158,7.343L5.679,2H6.97l0.518,2.422C7.62,5.018,7.717,5.527,7.78,5.948h0.038C7.862,5.647,7.959,5.141,8.11,4.431L8.647,2h1.291L8.44,7.343v2.563H7.158V7.343z"/><path d="M17.401,4.13v5.776h-1.018l-0.113-0.707h-0.028C15.966,9.733,15.551,10,14.999,10c-0.383,0-0.666-0.126-0.848-0.377c-0.182-0.251-0.273-0.644-0.273-1.178V4.13h1.3v4.24c0,0.258,0.028,0.441,0.085,0.551c0.057,0.11,0.151,0.165,0.283,0.165c0.113,0,0.221-0.034,0.325-0.104c0.104-0.069,0.181-0.157,0.231-0.264V4.13H17.401z"/></g></g><g style="display:inline;"><path d="M17.333,15.792c-0.056-0.066-0.142-0.099-0.259-0.099c-0.117,0-0.203,0.035-0.259,0.103c-0.056,0.069-0.093,0.182-0.111,0.338c-0.019,0.156-0.028,0.394-0.028,0.712v0.35h0.803v-0.35c0-0.313-0.011-0.55-0.032-0.712C17.427,15.972,17.389,15.858,17.333,15.792z"/><path d="M13.851,15.86c-0.061-0.087-0.147-0.131-0.259-0.131c-0.106,0-0.204,0.042-0.294,0.127c-0.09,0.085-0.154,0.194-0.191,0.326v2.768c0.048,0.085,0.11,0.148,0.187,0.191c0.077,0.042,0.16,0.064,0.251,0.064c0.117,0,0.209-0.042,0.278-0.127c0.069-0.085,0.118-0.228,0.147-0.43c0.029-0.201,0.044-0.48,0.044-0.835v-0.628c0-0.382-0.012-0.676-0.036-0.883C13.954,16.095,13.911,15.947,13.851,15.86z"/><path d="M19,11H5c-1.1,0-2,0.9-2,2v7c0,1.1,0.9,2,2,2h14c1.1,0,2-0.9,2-2v-7C21,11.9,20.1,11,19,11z M7.649,19.92H6.576V14.13h-1.09v-0.883h3.253v0.883h-1.09V19.92z M11.387,19.92h-0.859l-0.095-0.597h-0.024C10.175,19.775,9.825,20,9.358,20c-0.324,0-0.562-0.106-0.716-0.318c-0.154-0.212-0.231-0.544-0.231-0.994v-3.643H9.51v3.58c0,0.217,0.024,0.373,0.072,0.465c0.048,0.093,0.127,0.139,0.239,0.139c0.095,0,0.187-0.029,0.274-0.088c0.088-0.058,0.152-0.133,0.195-0.223v-3.874h1.098V19.92z M15.119,17.876c0,0.727-0.088,1.261-0.263,1.603s-0.448,0.513-0.819,0.513c-0.207,0-0.395-0.048-0.565-0.143c-0.17-0.095-0.297-0.225-0.382-0.39h-0.024l-0.111,0.461h-0.907V13h1.058l0,2.569h0.008c0.095-0.186,0.231-0.335,0.406-0.449c0.175-0.114,0.363-0.171,0.565-0.171c0.26,0,0.464,0.069,0.612,0.207c0.148,0.138,0.256,0.361,0.322,0.668c0.066,0.308,0.099,0.735,0.099,1.281V17.876z M18.514,17.848h-1.837v0.247c0,0.313,0.009,0.548,0.028,0.704c0.019,0.156,0.057,0.271,0.115,0.342c0.058,0.072,0.148,0.107,0.27,0.107c0.164,0,0.277-0.064,0.338-0.191c0.061-0.127,0.094-0.339,0.099-0.636l0.947,0.056c0.005,0.042,0.008,0.101,0.008,0.175c0,0.451-0.123,0.788-0.37,1.01c-0.247,0.223-0.595,0.334-1.046,0.334c-0.541,0-0.92-0.17-1.138-0.509c-0.218-0.339-0.326-0.864-0.326-1.575V17.06c0-0.732,0.113-1.266,0.338-1.603c0.225-0.337,0.611-0.505,1.157-0.505c0.376,0,0.665,0.069,0.867,0.207c0.201,0.138,0.343,0.353,0.426,0.644c0.082,0.292,0.123,0.695,0.123,1.209V17.848z"/></g></g><g id="Rounded" style="display:none;"><g style="display:inline;"><g><path d="M10.515,9.736c-0.261-0.176-0.446-0.449-0.556-0.82c-0.11-0.371-0.165-0.864-0.165-1.479V6.598c0-0.622,0.063-1.121,0.188-1.498c0.126-0.377,0.322-0.652,0.589-0.824c0.267-0.173,0.617-0.259,1.051-0.259c0.427,0,0.769,0.088,1.027,0.264c0.258,0.176,0.446,0.451,0.565,0.824c0.119,0.374,0.179,0.872,0.179,1.493v0.839c0,0.616-0.058,1.11-0.174,1.484c-0.116,0.374-0.305,0.647-0.565,0.82C12.393,9.914,12.04,10,11.594,10C11.136,10,10.776,9.912,10.515,9.736z M11.976,8.832c0.072-0.188,0.108-0.496,0.108-0.923v-1.8c0-0.415-0.036-0.718-0.108-0.909c-0.072-0.192-0.2-0.287-0.382-0.287c-0.176,0-0.3,0.096-0.372,0.287c-0.072,0.192-0.108,0.495-0.108,0.909v1.8c0,0.427,0.034,0.735,0.104,0.923c0.069,0.188,0.195,0.283,0.377,0.283C11.776,9.114,11.904,9.02,11.976,8.832z"/><path d="M7.349,7.343L6.083,2.77C5.976,2.383,6.267,2,6.669,2h0c0.287,0,0.535,0.2,0.595,0.481l0.415,1.941c0.132,0.597,0.229,1.106,0.292,1.526h0.038C8.052,5.647,8.15,5.141,8.301,4.431l0.432-1.954C8.794,2.198,9.041,2,9.326,2h0.001c0.403,0,0.694,0.384,0.585,0.772L8.63,7.343v1.922c0,0.354-0.287,0.641-0.641,0.641h0c-0.354,0-0.641-0.287-0.641-0.641V7.343z"/><path d="M17.592,4.78v4.577c0,0.303-0.246,0.549-0.549,0.549l0,0c-0.27,0-0.5-0.196-0.542-0.462l-0.039-0.244h-0.028C16.157,9.733,15.742,10,15.19,10c-0.383,0-0.666-0.126-0.848-0.377c-0.182-0.251-0.273-0.644-0.273-1.178V4.78c0-0.359,0.291-0.65,0.65-0.65h0c0.359,0,0.65,0.291,0.65,0.65v3.59c0,0.258,0.028,0.441,0.085,0.551c0.057,0.11,0.151,0.165,0.283,0.165c0.113,0,0.221-0.034,0.325-0.104c0.104-0.069,0.181-0.157,0.231-0.264V4.78c0-0.359,0.291-0.65,0.65-0.65h0C17.301,4.13,17.592,4.421,17.592,4.78z"/></g></g><g style="display:inline;"><path d="M17.333,15.792c-0.056-0.066-0.142-0.099-0.259-0.099c-0.117,0-0.203,0.035-0.259,0.103c-0.056,0.069-0.093,0.182-0.111,0.338c-0.019,0.156-0.028,0.394-0.028,0.712v0.35h0.803v-0.35c0-0.313-0.011-0.55-0.032-0.712C17.427,15.972,17.389,15.858,17.333,15.792z"/><path d="M13.851,15.86c-0.061-0.087-0.147-0.131-0.259-0.131c-0.106,0-0.204,0.042-0.294,0.127c-0.09,0.085-0.154,0.194-0.191,0.326v2.768c0.048,0.085,0.11,0.148,0.187,0.191c0.077,0.042,0.16,0.064,0.251,0.064c0.117,0,0.209-0.042,0.278-0.127c0.069-0.085,0.118-0.228,0.147-0.43c0.029-0.201,0.044-0.48,0.044-0.835v-0.628c0-0.382-0.012-0.676-0.036-0.883C13.954,16.095,13.911,15.947,13.851,15.86z"/><path d="M19,11H5c-1.1,0-2,0.9-2,2v7c0,1.1,0.9,2,2,2h14c1.1,0,2-0.9,2-2v-7C21,11.9,20.1,11,19,11z M7.112,19.92L7.112,19.92c-0.297,0-0.537-0.24-0.537-0.537V14.13H5.927c-0.244,0-0.441-0.198-0.441-0.441l0,0c0-0.244,0.198-0.441,0.441-0.441h2.37c0.244,0,0.441,0.198,0.441,0.441l0,0c0,0.244-0.198,0.441-0.441,0.441H7.649v5.254C7.649,19.68,7.409,19.92,7.112,19.92z M10.923,19.92L10.923,19.92c-0.228,0-0.422-0.165-0.458-0.39l-0.033-0.206h-0.024C10.175,19.775,9.825,20,9.358,20c-0.324,0-0.562-0.106-0.716-0.318c-0.154-0.212-0.231-0.544-0.231-0.994v-3.094c0-0.303,0.246-0.549,0.549-0.549h0c0.303,0,0.549,0.246,0.549,0.549v3.031c0,0.217,0.024,0.373,0.072,0.465c0.048,0.093,0.127,0.139,0.239,0.139c0.095,0,0.187-0.029,0.274-0.088c0.088-0.058,0.152-0.133,0.195-0.223v-3.325c0-0.303,0.246-0.549,0.549-0.549h0c0.303,0,0.549,0.246,0.549,0.549v3.864C11.387,19.713,11.179,19.92,10.923,19.92z M15.119,17.876c0,0.727-0.088,1.261-0.263,1.603s-0.448,0.513-0.819,0.513c-0.207,0-0.395-0.048-0.565-0.143c-0.17-0.095-0.297-0.225-0.382-0.39h-0.024l-0.018,0.073c-0.055,0.228-0.259,0.388-0.493,0.388h0c-0.28,0-0.507-0.227-0.507-0.507v-5.884c0-0.292,0.237-0.529,0.529-0.529h0c0.292,0,0.529,0.237,0.529,0.529l0,2.04h0.008c0.095-0.186,0.231-0.335,0.406-0.449c0.175-0.114,0.363-0.171,0.565-0.171c0.26,0,0.464,0.069,0.612,0.207c0.148,0.138,0.256,0.361,0.322,0.668c0.066,0.308,0.099,0.735,0.099,1.281V17.876z M18.514,17.295c0,0.305-0.248,0.553-0.553,0.553h-1.284v0.247c0,0.313,0.009,0.548,0.028,0.704c0.019,0.156,0.057,0.271,0.115,0.342c0.058,0.072,0.148,0.107,0.27,0.107c0.164,0,0.277-0.064,0.338-0.191c0.027-0.057,0.049-0.132,0.065-0.224c0.041-0.234,0.255-0.399,0.492-0.385v0c0.284,0.017,0.494,0.28,0.438,0.559c-0.056,0.277-0.158,0.516-0.312,0.655c-0.247,0.223-0.595,0.334-1.046,0.334c-0.541,0-0.92-0.17-1.138-0.509c-0.218-0.339-0.326-0.864-0.326-1.575V17.06c0-0.732,0.113-1.266,0.338-1.603c0.225-0.337,0.611-0.505,1.157-0.505c0.376,0,0.665,0.069,0.867,0.207c0.201,0.138,0.343,0.353,0.426,0.644c0.082,0.292,0.123,0.695,0.123,1.209V17.295z"/></g></g><g id="two_x5F_tone" style="display:none;"><g style="display:inline;"><g><path d="M10.324,9.736c-0.261-0.176-0.446-0.449-0.556-0.82c-0.11-0.371-0.165-0.864-0.165-1.479V6.598c0-0.622,0.063-1.121,0.188-1.498c0.126-0.377,0.322-0.652,0.589-0.824c0.267-0.173,0.617-0.259,1.051-0.259c0.427,0,0.769,0.088,1.027,0.264c0.258,0.176,0.446,0.451,0.565,0.824c0.119,0.374,0.179,0.872,0.179,1.493v0.839c0,0.616-0.058,1.11-0.174,1.484c-0.116,0.374-0.305,0.647-0.565,0.82C12.203,9.914,11.849,10,11.403,10C10.945,10,10.585,9.912,10.324,9.736z M11.785,8.832c0.072-0.188,0.108-0.496,0.108-0.923v-1.8c0-0.415-0.036-0.718-0.108-0.909c-0.072-0.192-0.2-0.287-0.382-0.287c-0.176,0-0.3,0.096-0.372,0.287c-0.072,0.192-0.108,0.495-0.108,0.909v1.8c0,0.427,0.034,0.735,0.104,0.923c0.069,0.188,0.195,0.283,0.377,0.283C11.585,9.114,11.713,9.02,11.785,8.832z"/><path d="M7.158,7.343L5.679,2H6.97l0.518,2.422C7.62,5.018,7.717,5.527,7.78,5.948h0.038C7.862,5.647,7.959,5.141,8.11,4.431L8.647,2h1.291L8.44,7.343v2.563H7.158V7.343z"/><path d="M17.401,4.13v5.776h-1.018l-0.113-0.707h-0.028C15.966,9.733,15.551,10,14.999,10c-0.383,0-0.666-0.126-0.848-0.377c-0.182-0.251-0.273-0.644-0.273-1.178V4.13h1.3v4.24c0,0.258,0.028,0.441,0.085,0.551c0.057,0.11,0.151,0.165,0.283,0.165c0.113,0,0.221-0.034,0.325-0.104c0.104-0.069,0.181-0.157,0.231-0.264V4.13H17.401z"/></g></g><g style="display:inline;"><path d="M17.333,15.792c-0.056-0.066-0.142-0.099-0.259-0.099c-0.117,0-0.203,0.035-0.259,0.103c-0.056,0.069-0.093,0.182-0.111,0.338c-0.019,0.156-0.028,0.394-0.028,0.712v0.35h0.803v-0.35c0-0.313-0.011-0.55-0.032-0.712C17.427,15.972,17.389,15.858,17.333,15.792z"/><path d="M13.851,15.86c-0.061-0.087-0.147-0.131-0.259-0.131c-0.106,0-0.204,0.042-0.294,0.127c-0.09,0.085-0.154,0.194-0.191,0.326v2.768c0.048,0.085,0.11,0.148,0.187,0.191c0.077,0.042,0.16,0.064,0.251,0.064c0.117,0,0.209-0.042,0.278-0.127c0.069-0.085,0.118-0.228,0.147-0.43c0.029-0.201,0.044-0.48,0.044-0.835v-0.628c0-0.382-0.012-0.676-0.036-0.883C13.954,16.095,13.911,15.947,13.851,15.86z"/><path d="M19,11H5c-1.1,0-2,0.9-2,2v7c0,1.1,0.9,2,2,2h14c1.1,0,2-0.9,2-2v-7C21,11.9,20.1,11,19,11z M7.649,19.92H6.576V14.13h-1.09v-0.883h3.253v0.883h-1.09V19.92z M11.387,19.92h-0.859l-0.095-0.597h-0.024C10.175,19.775,9.825,20,9.358,20c-0.324,0-0.562-0.106-0.716-0.318c-0.154-0.212-0.231-0.544-0.231-0.994v-3.643H9.51v3.58c0,0.217,0.024,0.373,0.072,0.465c0.048,0.093,0.127,0.139,0.239,0.139c0.095,0,0.187-0.029,0.274-0.088c0.088-0.058,0.152-0.133,0.195-0.223v-3.874h1.098V19.92z M15.119,17.876c0,0.727-0.088,1.261-0.263,1.603s-0.448,0.513-0.819,0.513c-0.207,0-0.395-0.048-0.565-0.143c-0.17-0.095-0.297-0.225-0.382-0.39h-0.024l-0.111,0.461h-0.907V13h1.058l0,2.569h0.008c0.095-0.186,0.231-0.335,0.406-0.449c0.175-0.114,0.363-0.171,0.565-0.171c0.26,0,0.464,0.069,0.612,0.207c0.148,0.138,0.256,0.361,0.322,0.668c0.066,0.308,0.099,0.735,0.099,1.281V17.876z M18.514,17.848h-1.837v0.247c0,0.313,0.009,0.548,0.028,0.704c0.019,0.156,0.057,0.271,0.115,0.342c0.058,0.072,0.148,0.107,0.27,0.107c0.164,0,0.277-0.064,0.338-0.191c0.061-0.127,0.094-0.339,0.099-0.636l0.947,0.056c0.005,0.042,0.008,0.101,0.008,0.175c0,0.451-0.123,0.788-0.37,1.01c-0.247,0.223-0.595,0.334-1.046,0.334c-0.541,0-0.92-0.17-1.138-0.509c-0.218-0.339-0.326-0.864-0.326-1.575V17.06c0-0.732,0.113-1.266,0.338-1.603c0.225-0.337,0.611-0.505,1.157-0.505c0.376,0,0.665,0.069,0.867,0.207c0.201,0.138,0.343,0.353,0.426,0.644c0.082,0.292,0.123,0.695,0.123,1.209V17.848z"/></g></g><g id="sharp" style="display:none;"><g style="display:inline;"><g><path d="M10.324,9.736c-0.261-0.176-0.446-0.449-0.556-0.82c-0.11-0.371-0.165-0.864-0.165-1.479V6.598c0-0.622,0.063-1.121,0.188-1.498c0.126-0.377,0.322-0.652,0.589-0.824c0.267-0.173,0.617-0.259,1.051-0.259c0.427,0,0.769,0.088,1.027,0.264c0.258,0.176,0.446,0.451,0.565,0.824c0.119,0.374,0.179,0.872,0.179,1.493v0.839c0,0.616-0.058,1.11-0.174,1.484c-0.116,0.374-0.305,0.647-0.565,0.82C12.203,9.914,11.849,10,11.403,10C10.945,10,10.585,9.912,10.324,9.736z M11.785,8.832c0.072-0.188,0.108-0.496,0.108-0.923v-1.8c0-0.415-0.036-0.718-0.108-0.909c-0.072-0.192-0.2-0.287-0.382-0.287c-0.176,0-0.3,0.096-0.372,0.287c-0.072,0.192-0.108,0.495-0.108,0.909v1.8c0,0.427,0.034,0.735,0.104,0.923c0.069,0.188,0.195,0.283,0.377,0.283C11.585,9.114,11.713,9.02,11.785,8.832z"/><path d="M7.158,7.343L5.679,2H6.97l0.518,2.422C7.62,5.018,7.717,5.527,7.78,5.948h0.038C7.862,5.647,7.959,5.141,8.11,4.431L8.647,2h1.291L8.44,7.343v2.563H7.158V7.343z"/><path d="M17.401,4.13v5.776h-1.018l-0.113-0.707h-0.028C15.966,9.733,15.551,10,14.999,10c-0.383,0-0.666-0.126-0.848-0.377c-0.182-0.251-0.273-0.644-0.273-1.178V4.13h1.3v4.24c0,0.258,0.028,0.441,0.085,0.551c0.057,0.11,0.151,0.165,0.283,0.165c0.113,0,0.221-0.034,0.325-0.104c0.104-0.069,0.181-0.157,0.231-0.264V4.13H17.401z"/></g></g><g style="display:inline;"><path d="M17.333,15.792c-0.056-0.066-0.142-0.099-0.259-0.099c-0.117,0-0.203,0.035-0.259,0.103c-0.056,0.069-0.093,0.182-0.111,0.338c-0.019,0.156-0.028,0.394-0.028,0.712v0.35h0.803v-0.35c0-0.313-0.011-0.55-0.032-0.712C17.427,15.972,17.389,15.858,17.333,15.792z"/><path d="M13.851,15.86c-0.061-0.087-0.147-0.131-0.259-0.131c-0.106,0-0.204,0.042-0.294,0.127c-0.09,0.085-0.154,0.194-0.191,0.326v2.768c0.048,0.085,0.11,0.148,0.187,0.191c0.077,0.042,0.16,0.064,0.251,0.064c0.117,0,0.209-0.042,0.278-0.127c0.069-0.085,0.118-0.228,0.147-0.43c0.029-0.201,0.044-0.48,0.044-0.835v-0.628c0-0.382-0.012-0.676-0.036-0.883C13.954,16.095,13.911,15.947,13.851,15.86z"/><path d="M21,11H3v11h18V11z M7.649,19.92H6.576V14.13h-1.09v-0.883h3.253v0.883h-1.09V19.92z M11.387,19.92h-0.859l-0.095-0.597h-0.024C10.175,19.775,9.825,20,9.358,20c-0.324,0-0.562-0.106-0.716-0.318c-0.154-0.212-0.231-0.544-0.231-0.994v-3.643H9.51v3.58c0,0.217,0.024,0.373,0.072,0.465c0.048,0.093,0.127,0.139,0.239,0.139c0.095,0,0.187-0.029,0.274-0.088c0.088-0.058,0.152-0.133,0.195-0.223v-3.874h1.098V19.92z M15.119,17.876c0,0.727-0.088,1.261-0.263,1.603s-0.448,0.513-0.819,0.513c-0.207,0-0.395-0.048-0.565-0.143c-0.17-0.095-0.297-0.225-0.382-0.39h-0.024l-0.111,0.461h-0.907V13h1.058l0,2.569h0.008c0.095-0.186,0.231-0.335,0.406-0.449c0.175-0.114,0.363-0.171,0.565-0.171c0.26,0,0.464,0.069,0.612,0.207c0.148,0.138,0.256,0.361,0.322,0.668c0.066,0.308,0.099,0.735,0.099,1.281V17.876z M18.514,17.848h-1.837v0.247c0,0.313,0.009,0.548,0.028,0.704c0.019,0.156,0.057,0.271,0.115,0.342c0.058,0.072,0.148,0.107,0.27,0.107c0.164,0,0.277-0.064,0.338-0.191c0.061-0.127,0.094-0.339,0.099-0.636l0.947,0.056c0.005,0.042,0.008,0.101,0.008,0.175c0,0.451-0.123,0.788-0.37,1.01c-0.247,0.223-0.595,0.334-1.046,0.334c-0.541,0-0.92-0.17-1.138-0.509c-0.218-0.339-0.326-0.864-0.326-1.575V17.06c0-0.732,0.113-1.266,0.338-1.603c0.225-0.337,0.611-0.505,1.157-0.505c0.376,0,0.665,0.069,0.867,0.207c0.201,0.138,0.343,0.353,0.426,0.644c0.082,0.292,0.123,0.695,0.123,1.209V17.848z"/></g></g></svg>